<?xml version="1.0"?>
<svg xmlns="http://www.w3.org/2000/svg" width="315" height="95" version="1.1">
<polygon fill="none" stroke="#333" points="65,5 90,65 29,90 90,29 65,90 29,5 5,65 5,29"/>
<g fill="#4FA97B">
   <circle cx="65" cy="5" r="5"/>
   <circle cx="90" cy="65" r="5"/>
   <circle cx="29" cy="90" r="5"/>
   <circle cx="90" cy="29" r="5"/>
   <circle cx="65" cy="90" r="5"/>
   <circle cx="29" cy="5" r="5"/>
   <circle cx="5" cy="65" r="5"/>
   <circle cx="5" cy="29" r="5"/>
</g>

<g transform="translate(110)">
<polygon fill="none" stroke="#333" points="65,5 29,5 90,65 90,29 65,90 29,90 5,65 5,29"/>
<g fill="#4FA97B">
   <circle cx="65" cy="5" r="5"/>
   <circle cx="29" cy="5" r="5"/>
   <circle cx="90" cy="65" r="5"/>
   <circle cx="90" cy="29" r="5"/>
   <circle cx="65" cy="90" r="5"/>
   <circle cx="29" cy="90" r="5"/>
   <circle cx="5" cy="65" r="5"/>
   <circle cx="5" cy="29" r="5"/>
</g>
</g>
<g transform="translate(220)">
<polygon fill="none" stroke="#333" points="29,90 65,90 90,65 90,29 65,5 29,5 5,29 5,65"/>
<g fill="#4FA97B">
   <circle cx="29" cy="90" r="5"/>
   <circle cx="65" cy="90" r="5"/>
   <circle cx="90" cy="65" r="5"/>
   <circle cx="90" cy="29" r="5"/>
   <circle cx="65" cy="5" r="5"/>
   <circle cx="29" cy="5" r="5"/>
   <circle cx="5" cy="29" r="5"/>
   <circle cx="5" cy="65" r="5"/>
</g>
</g>
</svg>
